<?xml version="1.0" encoding="UTF-8" standalone="no"?>
<!DOCTYPE svg PUBLIC "-//W3C//DTD SVG 1.1//EN"
 "http://www.w3.org/Graphics/SVG/1.1/DTD/svg11.dtd">
<!-- Generated by graphviz version 2.42.3 (0)
 -->
<!-- Title: %3 Pages: 1 -->
<svg width="183pt" height="332pt"
 viewBox="0.00 0.00 183.34 332.00" xmlns="http://www.w3.org/2000/svg" xmlns:xlink="http://www.w3.org/1999/xlink">
<g id="graph0" class="graph" transform="scale(1 1) rotate(0) translate(4 328)">
<title>%3</title>
<polygon fill="white" stroke="transparent" points="-4,4 -4,-328 179.34,-328 179.34,4 -4,4"/>
<!-- start -->
<g id="node1" class="node">
<title>start</title>
<path fill="none" stroke="black" d="M103.67,-324C103.67,-324 71.67,-324 71.67,-324 65.67,-324 59.67,-318 59.67,-312 59.67,-312 59.67,-300 59.67,-300 59.67,-294 65.67,-288 71.67,-288 71.67,-288 103.67,-288 103.67,-288 109.67,-288 115.67,-294 115.67,-300 115.67,-300 115.67,-312 115.67,-312 115.67,-318 109.67,-324 103.67,-324"/>
<text text-anchor="middle" x="87.67" y="-302.3" font-family="Times,serif" font-size="14.00">Inicio</text>
</g>
<!-- input -->
<g id="node4" class="node">
<title>input</title>
<polygon fill="none" stroke="black" points="175.51,-252 35.78,-252 -0.17,-216 139.56,-216 175.51,-252"/>
<text text-anchor="middle" x="87.67" y="-230.3" font-family="Times,serif" font-size="14.00">Entrada: x</text>
</g>
<!-- start&#45;&gt;input -->
<g id="edge1" class="edge">
<title>start&#45;&gt;input</title>
<path fill="none" stroke="black" d="M87.67,-287.7C87.67,-279.98 87.67,-270.71 87.67,-262.11"/>
<polygon fill="black" stroke="black" points="91.17,-262.1 87.67,-252.1 84.17,-262.1 91.17,-262.1"/>
</g>
<!-- end -->
<g id="node2" class="node">
<title>end</title>
<path fill="none" stroke="black" d="M102.67,-36C102.67,-36 72.67,-36 72.67,-36 66.67,-36 60.67,-30 60.67,-24 60.67,-24 60.67,-12 60.67,-12 60.67,-6 66.67,0 72.67,0 72.67,0 102.67,0 102.67,0 108.67,0 114.67,-6 114.67,-12 114.67,-12 114.67,-24 114.67,-24 114.67,-30 108.67,-36 102.67,-36"/>
<text text-anchor="middle" x="87.67" y="-14.3" font-family="Times,serif" font-size="14.00">Fin</text>
</g>
<!-- compute -->
<g id="node3" class="node">
<title>compute</title>
<polygon fill="none" stroke="black" points="126.17,-180 49.17,-180 49.17,-144 126.17,-144 126.17,-180"/>
<text text-anchor="middle" x="87.67" y="-158.3" font-family="Times,serif" font-size="14.00">s = x * x</text>
</g>
<!-- output -->
<g id="node5" class="node">
<title>output</title>
<polygon fill="none" stroke="black" points="160.92,-108 44.39,-108 14.42,-72 130.95,-72 160.92,-108"/>
<text text-anchor="middle" x="87.67" y="-86.3" font-family="Times,serif" font-size="14.00">Salida: s</text>
</g>
<!-- compute&#45;&gt;output -->
<g id="edge3" class="edge">
<title>compute&#45;&gt;output</title>
<path fill="none" stroke="black" d="M87.67,-143.7C87.67,-135.98 87.67,-126.71 87.67,-118.11"/>
<polygon fill="black" stroke="black" points="91.17,-118.1 87.67,-108.1 84.17,-118.1 91.17,-118.1"/>
</g>
<!-- input&#45;&gt;compute -->
<g id="edge2" class="edge">
<title>input&#45;&gt;compute</title>
<path fill="none" stroke="black" d="M87.67,-215.7C87.67,-207.98 87.67,-198.71 87.67,-190.11"/>
<polygon fill="black" stroke="black" points="91.17,-190.1 87.67,-180.1 84.17,-190.1 91.17,-190.1"/>
</g>
<!-- output&#45;&gt;end -->
<g id="edge4" class="edge">
<title>output&#45;&gt;end</title>
<path fill="none" stroke="black" d="M87.67,-71.7C87.67,-63.98 87.67,-54.71 87.67,-46.11"/>
<polygon fill="black" stroke="black" points="91.17,-46.1 87.67,-36.1 84.17,-46.1 91.17,-46.1"/>
</g>
</g>
</svg>
